<svg width="1103" height="234" viewBox="0 0 1103 234" fill="none" xmlns="http://www.w3.org/2000/svg">
<path fill-rule="evenodd" clip-rule="evenodd" d="M1095.87 90.9757C1106.44 99.6298 1103.57 116.467 1091.07 121.975C1028.7 149.47 964.333 189.966 914.62 229.623C903.955 238.13 887.748 232.729 885.037 219.36C844.249 18.1534 878.301 -87.2372 1095.87 90.9757ZM927.101 19.3059C935.867 24.5851 933.062 36.5128 924.245 41.707C915.011 47.1465 901.813 44.7625 901.219 34.062C900.18 15.3132 906.889 7.13477 927.101 19.3059Z" fill="#FFC20E"/>
<path d="M5.27344 174.547V151.344C17.5781 156.266 31.7812 158.727 47.8828 158.727C59.9062 158.727 65.918 154.859 65.918 147.125C65.918 139.742 61.875 136.051 53.7891 136.051H33.75C11.25 136.051 0 124.977 0 102.828C0 79.625 16.418 68.0234 49.2539 68.0234C63.1758 68.0234 76.2891 70.1328 88.5938 74.3516V97.5547C76.2891 92.6328 62.9297 90.1719 48.5156 90.1719C33.3984 90.1719 25.8398 94.0391 25.8398 101.773C25.8398 109.156 30.2344 112.848 39.0234 112.848H56.9531C81.5625 112.848 93.8672 123.922 93.8672 146.07C93.8672 169.273 78.1875 180.875 46.8281 180.875C31.4297 180.875 17.5781 178.766 5.27344 174.547Z" fill="#ffffff"/>
<path d="M111.324 179.82V29H139.274V83.2109C147.992 73.7891 159.137 69.0781 172.707 69.0781C198.934 69.0781 212.047 82.7188 212.047 110V179.82H184.098V110C184.098 97.7656 178.016 91.6484 165.852 91.6484C156.781 91.6484 147.922 95.2695 139.274 102.512V179.82H111.324Z" fill="#ffffff"/>
<path d="M259.035 124.027C259.035 147.16 268 158.727 285.93 158.727C303.86 158.727 312.825 147.16 312.825 124.027C312.825 101.457 303.86 90.1719 285.93 90.1719C268 90.1719 259.035 101.457 259.035 124.027ZM231.086 124.449C231.086 87.3242 249.367 68.7617 285.93 68.7617C322.492 68.7617 340.774 87.3242 340.774 124.449C340.774 161.504 322.492 180.031 285.93 180.031C249.508 180.031 231.227 161.504 231.086 124.449Z" fill="#ffffff"/>
<path d="M387.657 150.922C394.618 154.719 402.106 156.617 410.122 156.617C426.786 156.617 435.118 144.91 435.118 121.496C435.118 101.598 425.907 91.6484 407.485 91.6484C399.54 91.6484 392.93 92.1406 387.657 93.125V150.922ZM359.707 73.6133C374.403 70.5898 389.942 69.0781 406.325 69.0781C443.942 69.0781 462.75 86.6211 462.75 121.707C462.75 160.449 445.243 179.82 410.227 179.82C402.774 179.82 395.25 178.062 387.657 174.547V219.898H359.707V73.6133Z" fill="#ffffff"/>
<path d="M476.516 145.332C476.516 123.324 492.547 112.32 524.61 112.32C532.133 112.32 539.657 113.023 547.18 114.43V106.098C547.18 96.1836 540.044 91.2266 525.77 91.2266C513.676 91.2266 500.247 92.9844 485.481 96.5V74.3516C500.247 70.8359 513.676 69.0781 525.77 69.0781C558.676 69.0781 575.13 81.2422 575.13 105.57V179.82H558.887L548.973 169.906C539.34 176.516 528.723 179.82 517.122 179.82C490.051 179.82 476.516 168.324 476.516 145.332ZM547.18 133.414C540.149 132.008 532.626 131.305 524.61 131.305C511.18 131.305 504.465 135.875 504.465 145.016C504.465 154.859 510.09 159.781 521.34 159.781C530.622 159.781 539.235 156.898 547.18 151.133V133.414Z" fill="#ffffff"/>
<path d="M673.148 94.1797C668.578 92.4922 662.074 91.6484 653.637 91.6484C634.301 91.6484 624.633 102.301 624.633 123.605C624.633 144.207 632.965 154.508 649.629 154.508C657.645 154.508 665.484 152.609 673.148 148.812V94.1797ZM701.098 171.383C701.098 203.727 681.656 219.898 642.773 219.898C629.133 219.898 617.039 218.141 606.492 214.625V192.477C617.25 195.992 629.414 197.75 642.984 197.75C663.094 197.75 673.148 189.312 673.148 172.438C664.852 175.953 655.922 177.711 646.359 177.711C613.453 177.711 597 159.746 597 123.816C597 87.3242 616.16 69.0781 654.48 69.0781C667.348 69.0781 682.887 70.5898 701.098 73.6133V171.383Z" fill="#FFC20E"/>
<path d="M748.086 124.027C748.086 147.16 757.051 158.727 774.981 158.727C792.91 158.727 801.875 147.16 801.875 124.027C801.875 101.457 792.91 90.1719 774.981 90.1719C757.051 90.1719 748.086 101.457 748.086 124.027ZM720.137 124.449C720.137 87.3242 738.418 68.7617 774.981 68.7617C811.543 68.7617 829.824 87.3242 829.824 124.449C829.824 161.504 811.543 180.031 774.981 180.031C738.559 180.031 720.277 161.504 720.137 124.449Z" fill="#FFC20E"/>
</svg>
